<?xml version="1.0" encoding="UTF-8" standalone="no"?>
<!-- Created with Inkscape (http://www.inkscape.org/) -->

<svg
   version="1.1"
   id="svg1"
   width="510"
   height="513"
   viewBox="0 0 510 513"
   sodipodi:docname="logo_club.svg"
   inkscape:version="1.4.2 (f4327f4, 2025-05-13)"
   xmlns:inkscape="http://www.inkscape.org/namespaces/inkscape"
   xmlns:sodipodi="http://sodipodi.sourceforge.net/DTD/sodipodi-0.dtd"
   xmlns="http://www.w3.org/2000/svg"
   xmlns:svg="http://www.w3.org/2000/svg">
  <defs
     id="defs1" />
  <sodipodi:namedview
     id="namedview1"
     pagecolor="#ffffff"
     bordercolor="#000000"
     borderopacity="0.25"
     inkscape:showpageshadow="2"
     inkscape:pageopacity="0.0"
     inkscape:pagecheckerboard="0"
     inkscape:deskcolor="#d1d1d1"
     inkscape:zoom="1.5847953"
     inkscape:cx="254.92251"
     inkscape:cy="256.5"
     inkscape:window-width="1920"
     inkscape:window-height="1094"
     inkscape:window-x="-11"
     inkscape:window-y="-11"
     inkscape:window-maximized="1"
     inkscape:current-layer="g1" />
  <g
     inkscape:groupmode="layer"
     inkscape:label="Image"
     id="g1">
    <path
       style="fill:#000000"
       d="m 375.631,435.41697 c 0,-45.42138 0.25598,-56.9669 1.25,-56.38 3.54931,2.09562 73.75,55.76418 73.75,56.38201 0,0.39867 -5.2875,4.75584 -11.75,9.68258 -21.68851,16.53444 -60.73758,45.94169 -62,46.69125 -0.99407,0.59024 -1.25,-10.95225 -1.25,-56.37584 z m -268.5,-2.34373 -37.000004,-28.18893 -0.267346,-24.04306 c -0.265482,-23.87543 -0.251538,-24.05746 2,-26.10903 3.071896,-2.79906 72.62785,-55.31525 73.26322,-55.31525 0.27727,0 0.50413,36.45 0.50413,81 0,44.55 -0.3375,80.96517 -0.75,80.9226 -0.4125,-0.0426 -17.4,-12.76242 -37.75,-28.26633 z m 129.16667,-3.32294 c -0.77002,-0.77001 -0.92555,-408.333326 -0.15583,-408.333326 0.28096,0 6.24346,4.527669 13.25,10.061486 7.00654,5.533817 18.47666,14.554131 25.48916,20.045142 l 12.75,9.983656 V 245.96211 430.41697 h -25.33333 c -13.93334,0 -25.63334,-0.3 -26,-0.66667 z M 412.881,390.31175 375.631,362.20755 V 244.31226 c 0,-64.84241 0.3375,-117.86751 0.75,-117.83356 0.4125,0.034 17.4,12.77821 37.75,28.32057 l 37,28.25883 0.25411,117.67943 c 0.13977,64.72369 -0.0852,117.67921 -0.5,117.67893 -0.41476,-2.8e-4 -17.51661,-12.6474 -38.00411,-28.10471 z m -106.25,-89.9538 c 0,-39.78024 0.25667,-49.90513 1.25,-49.30959 0.6875,0.41218 12.1625,9.01388 25.5,19.11489 l 24.25,18.36546 v 30.94413 30.94413 h -25.5 -25.5 z M 69.630996,248.1503 v -95.3847 l 2.25,-2.02623 c 3.314426,-2.98479 72.572964,-55.322396 73.208324,-55.322396 0.29792,0 0.54168,42.896556 0.54168,95.325686 v 95.32568 l -2.25,2.0204 c -2.35993,2.11911 -70.333716,53.40283 -72.500004,54.69858 -0.996489,0.59605 -1.25,-18.59716 -1.25,-94.63702 z m 95.666674,66.6 c -0.36667,-0.36666 -0.66667,-34.38981 -0.66667,-75.60699 0,-67.30302 0.15809,-74.87965 1.55124,-74.34505 0.85319,0.3274 12.55319,8.94377 26,19.14749 l 24.44876,18.55221 v 56.45951 56.4595 h -25.33333 c -13.93334,0 -25.63334,-0.3 -26,-0.66667 z M 331.98801,254.60829 307.131,235.79962 306.87496,156.53381 c -0.20431,-63.250526 -0.002,-79.200249 1.00086,-78.941323 0.6913,0.178468 12.16901,8.132731 25.50604,17.676137 L 357.631,112.62028 v 80.39834 c 0,44.21909 -0.17685,80.39835 -0.39299,80.39835 -0.21614,0 -11.57864,-8.4639 -25.25,-18.80868 z M 190.381,169.82665 l -25.75,-19.50706 0.0153,-35.70131 c 0.008,-19.635716 0.34592,-36.216503 0.75,-36.846189 0.40409,-0.629685 11.9847,-10.205507 25.7347,-21.279603 l 25,-20.13472 0.26181,38.603768 c 0.144,21.232068 0.144,55.651654 0,76.487964 l -0.26181,37.8842 z"
       id="path1" />
  </g>
</svg>
